<?xml version="1.0" encoding="UTF-8"?>
<svg version="1.1" xmlns="http://www.w3.org/2000/svg" width="481" height="519">
<path d="M0 0 C0.76957031 0.57492188 1.53914063 1.14984375 2.33203125 1.7421875 C10.60989018 8.03394017 19.30566153 14.99782719 26 23 C26 23.66 26 24.32 26 25 C26.66 25 27.32 25 28 25 C28 25.66 28 26.32 28 27 C28.66 27 29.32 27 30 27 C30 27.66 30 28.32 30 29 C30.66 29 31.32 29 32 29 C33.32519531 30.41772461 33.32519531 30.41772461 34.828125 32.40234375 C35.37782959 33.12341309 35.92753418 33.84448242 36.49389648 34.58740234 C37.07341064 35.36293457 37.6529248 36.1384668 38.25 36.9375 C38.84047119 37.7207666 39.43094238 38.5040332 40.03930664 39.31103516 C46.46074703 47.8747357 52.0473942 56.50235946 57 66 C57.85271484 67.62615234 57.85271484 67.62615234 58.72265625 69.28515625 C65.96461549 83.40299766 71.12944074 97.63943728 75 113 C75.18836426 113.72558105 75.37672852 114.45116211 75.57080078 115.19873047 C83.51920662 146.13701357 82.96612187 179.14598495 75 210 C74.82098145 210.72606445 74.64196289 211.45212891 74.45751953 212.20019531 C69.88968991 230.67525285 62.88058267 247.74472021 53 264 C52.55769043 264.73927734 52.11538086 265.47855469 51.65966797 266.24023438 C50.30512996 268.50050903 48.93736417 270.7520396 47.5625 273 C47.13727051 273.70157227 46.71204102 274.40314453 46.27392578 275.12597656 C45.2383588 276.78673622 44.12607583 278.3992268 43 280 C42.34 280 41.68 280 41 280 C40.7525 280.721875 40.505 281.44375 40.25 282.1875 C38.87730408 285.27606582 37.27646704 287.51011418 35 290 C34.34 290 33.68 290 33 290 C32.6596875 290.8353125 32.6596875 290.8353125 32.3125 291.6875 C31.00562424 293.99009062 29.52709443 295.56339818 27.62109375 297.37890625 C24.68950703 300.31049297 22.01078459 303.47887465 19.28125 306.59765625 C16.99402992 309.00628698 14.69278851 311.05670429 12 313 C11.34 313 10.68 313 10 313 C10 313.66 10 314.32 10 315 C8.1015625 316.7265625 8.1015625 316.7265625 5.625 318.625 C4.81289063 319.25664062 4.00078125 319.88828125 3.1640625 320.5390625 C1 322 1 322 -1 322 C-1 322.66 -1 323.32 -1 324 C-3.05480392 325.49246853 -5.09579058 326.85190692 -7.25 328.1875 C-7.88752197 328.5882373 -8.52504395 328.98897461 -9.18188477 329.40185547 C-11.1155294 330.61077423 -13.05650398 331.80699789 -15 333 C-16.01449219 333.62777344 -17.02898437 334.25554687 -18.07421875 334.90234375 C-57.750605 358.77313002 -106.38271083 367.42389865 -152 360 C-153.36577641 359.80262966 -154.73166484 359.60603305 -156.09765625 359.41015625 C-183.60356552 355.23852265 -208.95644172 344.21126247 -232.046875 328.9453125 C-233.95428619 327.68884322 -235.90190653 326.49054469 -237.890625 325.3671875 C-238.58671875 324.91601562 -239.2828125 324.46484375 -240 324 C-240 323.34 -240 322.68 -240 322 C-241.051875 321.6596875 -241.051875 321.6596875 -242.125 321.3125 C-245.74128535 319.66158712 -248.08769976 317.7091165 -251 315 C-251 314.34 -251 313.68 -251 313 C-251.5775 312.731875 -252.155 312.46375 -252.75 312.1875 C-255.05550043 310.97070811 -257.02056192 309.69666121 -259 308 C-259 307.34 -259 306.68 -259 306 C-259.86625 305.6596875 -259.86625 305.6596875 -260.75 305.3125 C-263.59591381 303.65238361 -264.99841921 301.60812043 -267 299 C-267.86625 298.154375 -268.7325 297.30875 -269.625 296.4375 C-271.70981899 294.29781736 -272.88811642 292.72916878 -274 290 C-274.66 290 -275.32 290 -276 290 C-277.5078125 288.3203125 -277.5078125 288.3203125 -279.125 286.125 C-279.66382813 285.40570313 -280.20265625 284.68640625 -280.7578125 283.9453125 C-282 282 -282 282 -282 280 C-282.66 280 -283.32 280 -284 280 C-285.50878906 277.89550781 -285.50878906 277.89550781 -287.265625 274.953125 C-287.90886719 273.87933594 -288.55210937 272.80554688 -289.21484375 271.69921875 C-289.54983887 271.13122559 -289.88483398 270.56323242 -290.22998047 269.97802734 C-291.22403814 268.29398229 -292.23099752 266.61757387 -293.23828125 264.94140625 C-305.24912588 244.76414242 -312.35248747 224.6876851 -318 202 C-318.20028809 201.21343018 -318.40057617 200.42686035 -318.60693359 199.61645508 C-320.05530347 193.60444253 -320.64628529 187.59528811 -321.125 181.4375 C-321.2084668 180.37539307 -321.29193359 179.31328613 -321.37792969 178.21899414 C-322.00483198 169.78459957 -322.37996532 161.45760367 -322 153 C-321.9695459 152.19933105 -321.9390918 151.39866211 -321.90771484 150.57373047 C-321.35927356 138.1042762 -319.40688247 126.12960138 -316.5625 114 C-316.26206787 112.71786621 -315.96163574 111.43573242 -315.65209961 110.11474609 C-314.18956647 104.12706626 -312.60293855 98.58185712 -310 93 C-309.30070777 90.92059518 -308.61349277 88.83709554 -307.9375 86.75 C-304.8565166 77.95260741 -300.42493003 69.90571629 -295.95214844 61.74902344 C-295.27849034 60.51156533 -294.63009806 59.26019611 -294 58 C-293.34 58 -292.68 58 -292 58 C-291.90847656 57.45601563 -291.81695312 56.91203125 -291.72265625 56.3515625 C-288.95057913 47.33107372 -280.92668973 39.18424365 -275 32 C-274.30390625 31.08089844 -273.6078125 30.16179687 -272.890625 29.21484375 C-272.26671875 28.48394531 -271.6428125 27.75304687 -271 27 C-270.34 27 -269.68 27 -269 27 C-268.72776611 26.40396973 -268.45553223 25.80793945 -268.17504883 25.19384766 C-266.29316595 21.68032188 -263.50076071 19.16259985 -260.6875 16.375 C-260.06302979 15.75471924 -259.43855957 15.13443848 -258.79516602 14.49536133 C-252.91390013 8.75354279 -246.67478644 3.7792767 -240 -1 C-239.45988281 -1.39026367 -238.91976562 -1.78052734 -238.36328125 -2.18261719 C-167.63233825 -53.13073706 -69.66587354 -52.70282011 0 0 Z " fill="#020101" transform="translate(361,79)"/>
<path d="M0 0 C1.07121094 0.27263672 1.07121094 0.27263672 2.1640625 0.55078125 C17.72561875 5.41790629 30.77917974 18.44345653 38.8046875 32.0625 C44.29249503 42.54666961 46.50128277 52.25980119 46.3125 64.0625 C46.31572266 65.07376953 46.31894531 66.08503906 46.32226562 67.12695312 C46.27618361 73.63289592 45.52563603 79.67651373 44 86 C45.08796875 86.12117188 46.1759375 86.24234375 47.296875 86.3671875 C55.91211226 87.3437579 64.46422888 88.45402219 73 90 C72.42474548 93.31017373 71.49140779 94.84073431 69.0234375 97.09375 C68.435625 97.64933594 67.8478125 98.20492187 67.2421875 98.77734375 C65.99316948 99.92968046 64.74052905 101.07810267 63.484375 102.22265625 C62.60652344 103.05603516 62.60652344 103.05603516 61.7109375 103.90625 C61.16743652 104.40447266 60.62393555 104.90269531 60.06396484 105.41601562 C58.77516686 106.96974639 58.77516686 106.96974639 59.21240234 109.05688477 C60.33364663 111.82315362 62.10042654 113.38401674 64.25 115.4375 C65.06597656 116.22511719 65.88195312 117.01273437 66.72265625 117.82421875 C67.47417969 118.54222656 68.22570312 119.26023437 69 120 C69.886875 120.9075 70.77375 121.815 71.6875 122.75 C74.02172173 125.09179181 74.02172173 125.09179181 76.875 127.3125 C79.30275561 129.28929846 81.2913343 131.42257659 83.3125 133.8125 C85.87926729 136.83356238 88.5654092 139.46770327 91.5625 142.0625 C95.46992075 145.45473 98.81559213 148.91742581 102 153 C102 153.66 102 154.32 102 155 C102.804375 155.3403125 102.804375 155.3403125 103.625 155.6875 C109.24521815 158.79341003 112.99375399 163.06923568 117 168 C119.51606095 170.64508971 122.02917766 173.02346899 124.875 175.3125 C128.02455769 177.88208798 130.56316068 180.84452866 133.1875 183.9375 C135.55425594 186.63070504 138.11032582 189.09327495 140.71484375 191.5546875 C142 193 142 193 142 195 C142.5775 195.2475 143.155 195.495 143.75 195.75 C146.42980893 197.23878274 148.03357014 198.63314793 150 201 C152.18029718 209.0732702 152.30559059 217.68114492 152 226 C147.24228388 228.37885806 140.76620697 228.10279077 135.49975586 228.53417969 C133.88885847 228.67682551 132.27976829 228.84183199 130.67358398 229.03027344 C116.6256446 230.66162832 116.6256446 230.66162832 111.59326172 226.73632812 C108.74279531 224.08037924 106.39082057 221.07203006 104 218 C102.35552688 216.31143146 100.69241865 214.64051049 99 213 C96.41073669 210.41073669 96.62601957 208.97294721 96.375 205.375 C96.26285156 203.87066406 96.26285156 203.87066406 96.1484375 202.3359375 C96.09945312 201.56507813 96.05046875 200.79421875 96 200 C89.15647029 197.82849538 82.25249783 196.02339218 75.27148438 194.35839844 C70.10551351 193.10551351 70.10551351 193.10551351 69 192 C67.90537968 184.04035349 67.87204621 176.01843723 68 168 C66.948125 168.04125 65.89625 168.0825 64.8125 168.125 C56.65558984 167.85756032 51.85370504 162.97960766 46.49609375 157.33203125 C43.8877182 154.22656214 43.21257325 151.87228936 43.25 147.75 C43.578125 144.984375 43.578125 144.984375 44 143 C43.40703125 142.74476563 42.8140625 142.48953125 42.203125 142.2265625 C39.78775462 140.88183502 38.48788294 139.50785633 36.75 137.375 C36.22921875 136.74335938 35.7084375 136.11171875 35.171875 135.4609375 C34.78515625 134.97882813 34.3984375 134.49671875 34 134 C30.00484052 135.33171983 28.64788873 137.80895461 26 141 C25.34 141 24.68 141 24 141 C23.95875 141.5775 23.9175 142.155 23.875 142.75 C22.56767695 146.11168783 19.98163145 147.09175587 17 149 C16.46375 149.7425 15.9275 150.485 15.375 151.25 C14.92125 151.8275 14.4675 152.405 14 153 C12.68 153 11.36 153 10 153 C8.82627027 149.39809458 7.66223744 145.79312849 6.5 142.1875 C6.16613281 141.16333984 5.83226562 140.13917969 5.48828125 139.08398438 C5.17246094 138.10107422 4.85664063 137.11816406 4.53125 136.10546875 C4.23798828 135.19949951 3.94472656 134.29353027 3.64257812 133.36010742 C3 131 3 131 3 128 C2.23300781 128.2165625 1.46601563 128.433125 0.67578125 128.65625 C-6.94150483 130.56720679 -14.03981276 131.30145188 -21.875 131.3125 C-22.75373779 131.31765625 -23.63247559 131.3228125 -24.5378418 131.328125 C-38.82842197 131.17662997 -53.51012533 125.76714708 -64 116 C-64.69609375 115.35933594 -65.3921875 114.71867187 -66.109375 114.05859375 C-73.55921653 106.90282491 -78.68702737 99.36268081 -83 90 C-83.46599609 89.03707031 -83.46599609 89.03707031 -83.94140625 88.0546875 C-87.5512202 80.27702073 -87.21017569 72.09540784 -87.25 63.6875 C-87.270625 62.61048828 -87.29125 61.53347656 -87.3125 60.42382812 C-87.34647836 53.41154458 -86.39727848 47.58005796 -84 41 C-83.608125 39.80375 -83.21625 38.6075 -82.8125 37.375 C-82.544375 36.59125 -82.27625 35.8075 -82 35 C-81.34 35 -80.68 35 -80 35 C-79.896875 34.278125 -79.79375 33.55625 -79.6875 32.8125 C-78.78247371 29.11011971 -77.28152046 26.24734658 -74.53515625 23.57421875 C-72.95902406 21.95798142 -71.98724974 20.35799531 -70.8125 18.4375 C-62.00897318 6.66332497 -44.84833094 0.23832651 -30.9140625 -2.63671875 C-20.25925148 -3.96499948 -10.32138614 -2.76883533 0 0 Z " fill="#FB0101" transform="translate(208,127)"/>
<path d="M0 0 C1.07765625 0.01804688 2.1553125 0.03609375 3.265625 0.0546875 C4.49539062 0.08949219 4.49539062 0.08949219 5.75 0.125 C5.75 0.785 5.75 1.445 5.75 2.125 C6.636875 2.33125 7.52375 2.5375 8.4375 2.75 C13.05806999 4.66797245 15.48914994 7.60329987 17.75 12.125 C18.63827522 19.9620611 18.45170133 26.06281242 13.43359375 32.37890625 C9.04602354 36.92935609 5.24879706 37.30065537 -0.875 37.4375 C-4.92090178 37.42335349 -7.76699104 37.2572811 -11.25 35.125 C-11.25 34.465 -11.25 33.805 -11.25 33.125 C-11.848125 32.8775 -12.44625 32.63 -13.0625 32.375 C-16.08831737 30.6459615 -17.78305061 28.64582823 -18.8125 25.29296875 C-19.90762888 19.86621404 -20.23250598 14.23472891 -17.5625 9.25 C-12.74498581 2.73984569 -8.05553793 -0.17512039 0 0 Z " fill="#090001" transform="translate(172.25,156.875)"/>
<path d="M0 0 C3.88641026 5.82961538 3.18338463 11.8181826 3.1875 18.625 C3.19974609 19.66785156 3.21199219 20.71070313 3.22460938 21.78515625 C3.2370536 28.43037087 2.58727923 34.54476471 1 41 C2.08796875 41.12117188 3.1759375 41.24234375 4.296875 41.3671875 C12.91211226 42.3437579 21.46422888 43.45402219 30 45 C29.4194679 48.30118794 28.45131901 49.91134076 26.05859375 52.234375 C25.47529297 52.80800781 24.89199219 53.38164062 24.29101562 53.97265625 C23.37352539 54.85244141 23.37352539 54.85244141 22.4375 55.75 C21.82197266 56.35199219 21.20644531 56.95398438 20.57226562 57.57421875 C19.05485187 59.05634381 17.52829404 60.5290967 16 62 C16 59 16 59 18.4375 56.5 C19.283125 55.675 20.12875 54.85 21 54 C21.33 53.01 21.66 52.02 22 51 C24.0625 50.3125 24.0625 50.3125 26 50 C25.67 49.01 25.34 48.02 25 47 C21.17423079 45.7247436 17.50203731 45.57916878 13.49609375 45.28125 C11 45 11 45 9 44 C7.33727297 43.79777644 5.66945815 43.63588613 4 43.5 C-0.77777778 43.11111111 -0.77777778 43.11111111 -3 42 C-2.67 40.68 -2.34 39.36 -2 38 C-1.34 38 -0.68 38 0 38 C-0.020625 36.72125 -0.04125 35.4425 -0.0625 34.125 C-0.125 30.25 -0.125 30.25 1 28 C1.09505069 26.56365857 1.13072867 25.12307525 1.1328125 23.68359375 C1.13410156 22.83732422 1.13539063 21.99105469 1.13671875 21.11914062 C1.13285156 20.23419922 1.12898437 19.34925781 1.125 18.4375 C1.13080078 17.10428711 1.13080078 17.10428711 1.13671875 15.74414062 C1.13478516 14.47666992 1.13478516 14.47666992 1.1328125 13.18359375 C1.13112061 12.01654907 1.13112061 12.01654907 1.12939453 10.82592773 C1.19906601 8.98061464 1.19906601 8.98061464 0 8 C-0.14115161 5.32941149 -0.04247107 2.67567762 0 0 Z " fill="#CE0C0D" transform="translate(251,172)"/>
<path d="M0 0 C0.495 0.99 0.495 0.99 1 2 C-1.64 2 -4.28 2 -7 2 C-7 1.01 -7 0.02 -7 -1 C-9.33197634 -1.34731563 -11.66421813 -1.67991137 -14 -2 C-14.67546875 -2.09539062 -15.3509375 -2.19078125 -16.046875 -2.2890625 C-24.63013539 -3.38546437 -33.48201219 -3.70359756 -42 -2 C-42.33 -1.67 -42.66 -1.34 -43 -1 C-45.33333333 -0.66666667 -47.66666667 -0.33333333 -50 0 C-50.33 0.33 -50.66 0.66 -51 1 C-52.66617115 1.04063832 -54.33388095 1.042721 -56 1 C-53.5474195 -1.4525805 -51.53774752 -1.98703035 -48.25 -3.0625 C-47.22390625 -3.40410156 -46.1978125 -3.74570313 -45.140625 -4.09765625 C-30.3592572 -8.34454177 -13.92786414 -6.28119363 0 0 Z " fill="#C20B0C" transform="translate(216,130)"/>
<path d="M0 0 C0.99 0.495 0.99 0.495 2 1 C2.4140625 3.06640625 2.4140625 3.06640625 2.625 5.5625 C2.69976562 6.38878906 2.77453125 7.21507812 2.8515625 8.06640625 C2.92503906 9.02353516 2.92503906 9.02353516 3 10 C3.99902344 10.20496094 4.99804688 10.40992188 6.02734375 10.62109375 C7.31769531 10.89050781 8.60804688 11.15992188 9.9375 11.4375 C11.22527344 11.70433594 12.51304687 11.97117187 13.83984375 12.24609375 C17 13 17 13 18 14 C19.51469448 14.23192865 21.03754562 14.41215238 22.5625 14.5625 C23.38878906 14.64628906 24.21507812 14.73007812 25.06640625 14.81640625 C25.70449219 14.87699219 26.34257812 14.93757813 27 15 C27.33 16.65 27.66 18.3 28 20 C28.66 20 29.32 20 30 20 C30.02578125 20.67546875 30.0515625 21.3509375 30.078125 22.046875 C30.31325112 27.72135793 30.31325112 27.72135793 33.0625 32.5 C33.701875 32.995 34.34125 33.49 35 34 C35 34.66 35 35.32 35 36 C33 36 33 36 30.4375 33.6875 C26.91876048 29.39256794 27.10458651 24.34341978 27 19 C20.15647029 16.82849538 13.25249783 15.02339218 6.27148438 13.35839844 C1.10551351 12.10551351 1.10551351 12.10551351 0 11 C-0.07226502 9.14712498 -0.0838122 7.29166122 -0.0625 5.4375 C-0.05347656 4.42558594 -0.04445313 3.41367187 -0.03515625 2.37109375 C-0.02355469 1.58863281 -0.01195312 0.80617188 0 0 Z " fill="#CE0B0E" transform="translate(277,308)"/>
<path d="M0 0 C1.0621875 0.40992188 2.124375 0.81984375 3.21875 1.2421875 C4.64574205 1.78669762 6.07283059 2.33095492 7.5 2.875 C8.19609375 3.14441406 8.8921875 3.41382813 9.609375 3.69140625 C18.05703812 6.89838947 25.37119497 8.32843955 34.4375 8.25 C35.32759766 8.25773437 36.21769531 8.26546875 37.13476562 8.2734375 C42.33995425 8.25822877 47.06004782 7.74331393 52.10351562 6.44091797 C54.43285729 5.89936402 56.61864109 5.84636394 59 6 C59.495 9.465 59.495 9.465 60 13 C58.5 11.625 58.5 11.625 57 10 C57 9.34 57 8.68 57 8 C56.37270996 8.14074951 55.74541992 8.28149902 55.09912109 8.42651367 C47.23656825 10.0392539 39.6351637 10.33364616 31.625 10.3125 C30.38105469 10.32861328 29.13710937 10.34472656 27.85546875 10.36132812 C26.65792969 10.36197266 25.46039063 10.36261719 24.2265625 10.36328125 C23.14971191 10.36626221 22.07286133 10.36924316 20.96337891 10.37231445 C17.60659508 9.9505732 15.80067333 8.83692783 13 7 C9.80604974 6.28598768 9.80604974 6.28598768 7 6 C7 5.34 7 4.68 7 4 C6.1028125 3.7834375 6.1028125 3.7834375 5.1875 3.5625 C3.43849596 3.1127561 1.71322977 2.57107659 0 2 C0 1.34 0 0.68 0 0 Z " fill="#3F0000" transform="translate(152,249)"/>
<path d="M0 0 C2.62187494 1.04874998 3.79371361 1.64931313 5.25 4.125 C5.4975 4.74375 5.745 5.3625 6 6 C5.113125 5.731875 4.22625 5.46375 3.3125 5.1875 C-0.12829059 4.61566612 -0.12829059 4.61566612 -2.5625 7.125 C-3.366875 8.07375 -4.17125 9.0225 -5 10 C-6.62836738 11.7041054 -8.28769752 13.38025441 -10 15 C-10.66 15 -11.32 15 -12 15 C-12.268125 15.598125 -12.53625 16.19625 -12.8125 16.8125 C-14.04111253 19.07573361 -14.89031346 20.51540577 -17 22 C-19.6875 21.6875 -19.6875 21.6875 -22 21 C-21.071875 20.87625 -21.071875 20.87625 -20.125 20.75 C-17.30359826 19.75421115 -17.28072042 18.63677734 -16 16 C-11.55555556 12 -11.55555556 12 -9 12 C-8.67 10.68 -8.34 9.36 -8 8 C-7.34 8 -6.68 8 -6 8 C-5.34 6.68 -4.68 5.36 -4 4 C-3.34 4 -2.68 4 -2 4 C-1.34 2.68 -0.68 1.36 0 0 Z " fill="#2B0101" transform="translate(240,260)"/>
<path d="M0 0 C0.33 0 0.66 0 1 0 C1 3.63 1 7.26 1 11 C-2.08166199 12.540831 -5.39051884 12.4233359 -8.78125 12.640625 C-9.55053833 12.69071716 -10.31982666 12.74080933 -11.11242676 12.79241943 C-12.7396651 12.89577741 -14.3670742 12.99647607 -15.99462891 13.09472656 C-18.49106591 13.2494463 -20.98546916 13.42535223 -23.48046875 13.6015625 C-25.05981483 13.69923543 -26.63924042 13.79563276 -28.21875 13.890625 C-28.9677356 13.94671936 -29.71672119 14.00281372 -30.48840332 14.06060791 C-32.59179688 14.17285156 -32.59179688 14.17285156 -36 14 C-36.66 13.01 -37.32 12.02 -38 11 C-25.46 10.67 -12.92 10.34 0 10 C0 6.7 0 3.4 0 0 Z " fill="#CE0C0D" transform="translate(359,342)"/>
<path d="M0 0 C0.66 0.33 1.32 0.66 2 1 C-3.50332169 7.1608877 -8.92760534 13.15053575 -15.2734375 18.46484375 C-17.8403999 20.7472334 -19.88948056 23.29589696 -22 26 C-22.66 25.67 -23.32 25.34 -24 25 C-23.04882866 23.8274869 -22.08882991 22.66212985 -21.125 21.5 C-20.59132813 20.8503125 -20.05765625 20.200625 -19.5078125 19.53125 C-19.01023437 19.0259375 -18.51265625 18.520625 -18 18 C-17.34 18 -16.68 18 -16 18 C-15.73719238 17.4112207 -15.47438477 16.82244141 -15.20361328 16.21582031 C-13.94383819 13.89660759 -12.61995979 12.39050597 -10.7421875 10.546875 C-9.80439453 9.61875 -9.80439453 9.61875 -8.84765625 8.671875 C-8.19667969 8.03765625 -7.54570313 7.4034375 -6.875 6.75 C-6.21628906 6.1003125 -5.55757812 5.450625 -4.87890625 4.78125 C-3.25703357 3.18288273 -1.6306719 1.58938103 0 0 Z " fill="#5C5C5C" transform="translate(108,88)"/>
<path d="M0 0 C1.32 0.33 2.64 0.66 4 1 C4.00257813 1.73605469 4.00515625 2.47210938 4.0078125 3.23046875 C4.14588865 9.64998295 4.14588865 9.64998295 7.6875 14.75 C8.23277344 15.100625 8.77804687 15.45125 9.33984375 15.8125 C11.30429151 17.21765793 12.35915027 18.78458272 13.75 20.75 C15.66609947 23.11182314 16.61853912 23.90205734 19.6015625 24.66796875 C22.08599789 24.90941388 24.50510831 25.03451431 27 25 C27 25.66 27 26.32 27 27 C19.67795 27.28713922 15.77046599 26.10292318 10.29199219 21.11425781 C3.33198824 14.38300627 3.33198824 14.38300627 2.22265625 9.76171875 C2.24708305 7.07128088 2.44114958 4.62866679 3 2 C2.01 1.67 1.02 1.34 0 1 C0 0.67 0 0.34 0 0 Z " fill="#CC0D12" transform="translate(249,268)"/>
<path d="M0 0 C0.61875 0.33 1.2375 0.66 1.875 1 C1.875 1.66 1.875 2.32 1.875 3 C3.195 3.66 4.515 4.32 5.875 5 C5.875 5.99 5.875 6.98 5.875 8 C5.483125 7.54625 5.09125 7.0925 4.6875 6.625 C2.56667513 4.72357081 0.54457765 3.93795972 -2.125 3 C-2.125 2.34 -2.125 1.68 -2.125 1 C-10.37579473 1.15356809 -16.26625185 2.30626074 -23.125 7 C-21.38643179 2.86220766 -19.46032437 1.59913004 -15.48046875 -0.2421875 C-10.29438507 -1.91067877 -5.14370165 -1.64598453 0 0 Z " fill="#CB0C0F" transform="translate(180.125,156)"/>
<path d="M0 0 C0.33 1.32 0.66 2.64 1 4 C0.34 4 -0.32 4 -1 4 C-1 5.65 -1 7.3 -1 9 C-1.598125 9.144375 -2.19625 9.28875 -2.8125 9.4375 C-4.56150404 9.8872439 -6.28677023 10.42892341 -8 11 C-8 12.65 -8 14.3 -8 16 C-8.99 15.34 -9.98 14.68 -11 14 C-10.52590352 9.68269587 -7.96603297 7.66352539 -4.9375 4.75 C-4.01839844 3.85796875 -3.09929687 2.9659375 -2.15234375 2.046875 C-1.44207031 1.37140625 -0.73179687 0.6959375 0 0 Z " fill="#320000" transform="translate(277,223)"/>
<path d="M0 0 C2.62187494 1.04874998 3.79371361 1.64931313 5.25 4.125 C5.4975 4.74375 5.745 5.3625 6 6 C3.03 5.505 3.03 5.505 0 5 C-0.99 6.485 -0.99 6.485 -2 8 C-5.125 9.1875 -5.125 9.1875 -8 10 C-8 9.34 -8 8.68 -8 8 C-7.34 8 -6.68 8 -6 8 C-5.34 6.68 -4.68 5.36 -4 4 C-3.34 4 -2.68 4 -2 4 C-1.34 2.68 -0.68 1.36 0 0 Z " fill="#330102" transform="translate(240,260)"/>
<path d="M0 0 C0.33 2.31 0.66 4.62 1 7 C-0.5 5.625 -0.5 5.625 -2 4 C-2 3.34 -2 2.68 -2 2 C-2.63164062 2.144375 -3.26328125 2.28875 -3.9140625 2.4375 C-11.66646318 4.04606729 -19.10127559 4.20755772 -27 4 C-27 3.67 -27 3.34 -27 3 C-26.40461426 2.94465088 -25.80922852 2.88930176 -25.19580078 2.83227539 C-22.50512785 2.57981135 -19.81507714 2.32123184 -17.125 2.0625 C-16.18785156 1.97548828 -15.25070313 1.88847656 -14.28515625 1.79882812 C-13.38925781 1.71181641 -12.49335938 1.62480469 -11.5703125 1.53515625 C-10.32918701 1.41732788 -10.32918701 1.41732788 -9.06298828 1.29711914 C-0.04793769 -0.00126152 -0.04793769 -0.00126152 0 0 Z " fill="#560202" transform="translate(211,255)"/>
<path d="M0 0 C0.99 0.495 0.99 0.495 2 1 C2.4140625 3.06640625 2.4140625 3.06640625 2.625 5.5625 C2.69976562 6.38878906 2.77453125 7.21507812 2.8515625 8.06640625 C2.92503906 9.02353516 2.92503906 9.02353516 3 10 C4.546875 10.433125 4.546875 10.433125 6.125 10.875 C9.45007997 11.82308798 12.72751453 12.88256594 16 14 C12.37089807 15.29302919 9.96054037 14.68677944 6.3125 13.625 C5.33925781 13.34914063 4.36601562 13.07328125 3.36328125 12.7890625 C1 12 1 12 0 11 C-0.07226502 9.14712498 -0.0838122 7.29166122 -0.0625 5.4375 C-0.05347656 4.42558594 -0.04445313 3.41367187 -0.03515625 2.37109375 C-0.02355469 1.58863281 -0.01195312 0.80617188 0 0 Z " fill="#BD0E0F" transform="translate(277,308)"/>
<path d="M0 0 C1.125 3.75 1.125 3.75 0 6 C-0.99 6.33 -1.98 6.66 -3 7 C-3 7.66 -3 8.32 -3 9 C-3.66 9 -4.32 9 -5 9 C-5 10.32 -5 11.64 -5 13 C-5.66 13 -6.32 13 -7 13 C-7 14.32 -7 15.64 -7 17 C-7.66 17 -8.32 17 -9 17 C-8.67 15.02 -8.34 13.04 -8 11 C-7.34 11 -6.68 11 -6 11 C-5.896875 10.278125 -5.79375 9.55625 -5.6875 8.8125 C-4.93217477 5.72253314 -3.80862024 3.60441314 -2 1 C-1.34 0.67 -0.68 0.34 0 0 Z " fill="#D10A0B" transform="translate(134,151)"/>
<path d="M0 0 C1.32 0 2.64 0 4 0 C3.42308522 3.16854747 2.58353113 4.78226459 0.27734375 7.015625 C-0.52993164 7.80839844 -0.52993164 7.80839844 -1.35351562 8.6171875 C-1.91748047 9.15601563 -2.48144531 9.69484375 -3.0625 10.25 C-3.63033203 10.80429688 -4.19816406 11.35859375 -4.78320312 11.9296875 C-6.18212469 13.29334214 -7.59019114 14.64760417 -9 16 C-9 13 -9 13 -6.5625 10.5 C-5.2940625 9.2625 -5.2940625 9.2625 -4 8 C-3.67 7.01 -3.34 6.02 -3 5 C-0.9375 4.3125 -0.9375 4.3125 1 4 C0.67 2.68 0.34 1.36 0 0 Z " fill="#D80B0F" transform="translate(276,218)"/>
<path d="M0 0 C0.66 0 1.32 0 2 0 C1.690625 0.598125 1.38125 1.19625 1.0625 1.8125 C-1.01934699 6.09865556 -1.10584744 9.46262865 -1.0625 14.1875 C-1.05347656 15.45980469 -1.04445312 16.73210937 -1.03515625 18.04296875 C-1.02355469 19.01878906 -1.01195312 19.99460938 -1 21 C-3.19442375 19.2537742 -3.93766788 18.35265381 -4.43359375 15.546875 C-4.44258278 9.11072877 -3.74916298 5.27226044 0 0 Z " fill="#CB0D10" transform="translate(155,163)"/>
<path d="M0 0 C0 0.99 0 1.98 0 3 C-0.66 3 -1.32 3 -2 3 C-2.433125 4.0828125 -2.433125 4.0828125 -2.875 5.1875 C-3.91666667 7.79166667 -4.95833333 10.39583333 -6 13 C-6.66 13 -7.32 13 -8 13 C-8.12375 13.94875 -8.2475 14.8975 -8.375 15.875 C-9 19 -9 19 -11 21 C-11 19.02 -11 17.04 -11 15 C-10.34 15 -9.68 15 -9 15 C-9 13.68 -9 12.36 -9 11 C-8.34 11 -7.68 11 -7 11 C-7 9.68 -7 8.36 -7 7 C-6.34 7 -5.68 7 -5 7 C-5 6.01 -5 5.02 -5 4 C-4.34 4 -3.68 4 -3 4 C-3 3.34 -3 2.68 -3 2 C-2.01 1.34 -1.02 0.68 0 0 Z " fill="#3B0100" transform="translate(134,149)"/>
<path d="M0 0 C0.43570312 0.37511719 0.87140625 0.75023437 1.3203125 1.13671875 C1.91585938 1.64847656 2.51140625 2.16023438 3.125 2.6875 C4.08019531 3.51121094 4.08019531 3.51121094 5.0546875 4.3515625 C6.25184042 5.36601739 7.46282637 6.36471571 8.6953125 7.3359375 C11.95555475 9.90808842 14.09860584 12.30284468 16 16 C11.16232798 14.58495882 8.4303577 11.67148642 5.1875 8 C4.68541016 7.4534375 4.18332031 6.906875 3.66601562 6.34375 C0 2.27372449 0 2.27372449 0 0 Z " fill="#C30E0C" transform="translate(291,262)"/>
<path d="M0 0 C1.32 0.66 2.64 1.32 4 2 C4.02689449 4.95839355 4.04678741 7.91654427 4.0625 10.875 C4.07087891 11.71675781 4.07925781 12.55851563 4.08789062 13.42578125 C4.09111328 14.23144531 4.09433594 15.03710938 4.09765625 15.8671875 C4.10289307 16.61081543 4.10812988 17.35444336 4.11352539 18.12060547 C4 20 4 20 3 22 C2.34 22 1.68 22 1 22 C0.67 22.99 0.34 23.98 0 25 C-0.33 24.34 -0.66 23.68 -1 23 C-0.53207031 22.2678125 -0.06414062 21.535625 0.41796875 20.78125 C2.32334011 17.43156011 2.37061759 15.32681953 2.3125 11.5 C2.30863281 10.3965625 2.30476562 9.293125 2.30078125 8.15625 C2.00520718 5.05464156 1.3140157 2.80602557 0 0 Z " fill="#BF0B0D" transform="translate(187,164)"/>
<path d="M0 0 C1.953125 0.6171875 1.953125 0.6171875 4 2 C4.609375 4.8203125 4.609375 4.8203125 4.75 8.125 C4.80671875 9.22070312 4.8634375 10.31640625 4.921875 11.4453125 C4.94765625 12.28835938 4.9734375 13.13140625 5 14 C4.01 13.67 3.02 13.34 2 13 C0.71553081 10.43106162 0.67022856 8.23423663 0.4375 5.375 C0.35371094 4.37210937 0.26992187 3.36921875 0.18359375 2.3359375 C0.12300781 1.56507813 0.06242188 0.79421875 0 0 Z " fill="#340102" transform="translate(248,268)"/>
<path d="M0 0 C0 0.99 0 1.98 0 3 C-0.62648437 3.15855469 -1.25296875 3.31710938 -1.8984375 3.48046875 C-4.36858678 4.1856691 -6.67253596 4.90900123 -9 6 C-10.43923199 8.50995496 -10.43923199 8.50995496 -11 11 C-11.99 11.33 -12.98 11.66 -14 12 C-14 12.99 -14 13.98 -14 15 C-14.66 15 -15.32 15 -16 15 C-15.45117921 11.15825448 -13.81576178 9.57441077 -11 7 C-10.360625 6.319375 -9.72125 5.63875 -9.0625 4.9375 C-6.43632227 2.47048456 -3.73118733 0 0 0 Z " fill="#BE0C0A" transform="translate(151,136)"/>
<path d="M0 0 C0 0.33 0 0.66 0 1 C-1.7015625 1.2165625 -1.7015625 1.2165625 -3.4375 1.4375 C-6.80777201 1.61171478 -6.80777201 1.61171478 -8 3 C-11.5 3.5 -11.5 3.5 -15 4 C-15.33 4.33 -15.66 4.66 -16 5 C-17.66617115 5.04063832 -19.33388095 5.042721 -21 5 C-15.68361367 -0.31638633 -7.07043278 -0.34211772 0 0 Z " fill="#D30D0D" transform="translate(181,126)"/>
<path d="M0 0 C0.66 0.33 1.32 0.66 2 1 C2.625 4.0625 2.625 4.0625 3 7 C3.66 7 4.32 7 5 7 C5 7.99 5 8.98 5 10 C3 10 3 10 1.4921875 8.5390625 C0.95851563 7.90742188 0.42484375 7.27578125 -0.125 6.625 C-0.93324219 5.68527344 -0.93324219 5.68527344 -1.7578125 4.7265625 C-3 3 -3 3 -3 1 C-2.01 0.67 -1.02 0.34 0 0 Z " fill="#300101" transform="translate(307,272)"/>
<path d="M0 0 C2.76649072 2.64620852 3.93043659 3.9953439 4.203125 7.93359375 C4.21859375 9.08988281 4.2340625 10.24617187 4.25 11.4375 C4.27578125 12.59121094 4.3015625 13.74492187 4.328125 14.93359375 C4 18 4 18 2.484375 19.91015625 C1.99453125 20.26980469 1.5046875 20.62945312 1 21 C1 19.68 1 18.36 1 17 C1.66 17 2.32 17 3 17 C2.54775239 11.08507728 1.8417395 5.64800112 0 0 Z " fill="#370000" transform="translate(186,164)"/>
<path d="M0 0 C2.62728858 0.61642534 5.25153582 1.24267787 7.875 1.875 C8.62136719 2.04902344 9.36773437 2.22304688 10.13671875 2.40234375 C15.7734375 3.7734375 15.7734375 3.7734375 18 6 C10.575 5.01 10.575 5.01 3 4 C3 3.34 3 2.68 3 2 C2.01 1.67 1.02 1.34 0 1 C0 0.67 0 0.34 0 0 Z " fill="#3B0000" transform="translate(284,321)"/>
<path d="M0 0 C9.25961538 9.00240385 9.25961538 9.00240385 10 14 C9.01 14 8.02 14 7 14 C6.71125 13.0925 6.4225 12.185 6.125 11.25 C5.23468224 8.67797092 4.28505587 6.38653234 3 4 C2.34 4 1.68 4 1 4 C0.67 2.68 0.34 1.36 0 0 Z " fill="#C90D0E" transform="translate(236,146)"/>
<path d="M0 0 C4.96646236 3.24730231 8.01872456 5.87220625 11 11 C5.84563204 9.63560848 2.93351599 6.27426385 0 2 C0 1.34 0 0.68 0 0 Z " fill="#C8100C" transform="translate(329,300)"/>
<path d="M0 0 C1.1725131 0.95117134 2.33787015 1.91117009 3.5 2.875 C4.47453125 3.67550781 4.47453125 3.67550781 5.46875 4.4921875 C5.9740625 4.98976562 6.479375 5.48734375 7 6 C7 6.66 7 7.32 7 8 C8.32 8.33 9.64 8.66 11 9 C8 10 8 10 6.0625 9.3125 C3.62633251 7.7622116 1.83872076 6.23273236 0 4 C0 2.68 0 1.36 0 0 Z " fill="#C20C0F" transform="translate(154,184)"/>
<path d="M0 0 C1.32 0.33 2.64 0.66 4 1 C3.34 1 2.68 1 2 1 C1.95875 1.598125 1.9175 2.19625 1.875 2.8125 C1 5 1 5 -2.0625 6.75 C-3.5165625 7.36875 -3.5165625 7.36875 -5 8 C-3.62845496 5.04590299 -2.01136276 2.55991624 0 0 Z " fill="#CD080B" transform="translate(230,267)"/>
<path d="M0 0 C0 0.66 0 1.32 0 2 C-3.96 2.66 -7.92 3.32 -12 4 C-12.66 3.01 -13.32 2.02 -14 1 C-12.04175306 0.83232136 -10.08339945 0.66588795 -8.125 0.5 C-6.48917969 0.36078125 -6.48917969 0.36078125 -4.8203125 0.21875 C-3.21670436 0.09437042 -1.60842449 0 0 0 Z " fill="#C80A0E" transform="translate(180,193)"/>
<path d="M0 0 C4.47726973 2.95668756 7.59983652 5.05848696 10 10 C4.98343041 8.5666944 2.98547118 6.09436048 0 2 C0 1.34 0 0.68 0 0 Z " fill="#C1100C" transform="translate(281,252)"/>
<path d="M0 0 C0.66 0.33 1.32 0.66 2 1 C0.35 2.98 -1.3 4.96 -3 7 C-4.65 6.67 -6.3 6.34 -8 6 C-5.54080489 3.3651481 -3.42227589 1.25483449 0 0 Z " fill="#626262" transform="translate(146,62)"/>
<path d="M0 0 C2.3125 -0.3125 2.3125 -0.3125 5 0 C6.875 2.3125 6.875 2.3125 8 5 C7.67 5.99 7.34 6.98 7 8 C4.35247996 5.42215154 2.05567935 3.08351902 0 0 Z " fill="#310100" transform="translate(330,300)"/>
<path d="M0 0 C2.62187494 1.04874998 3.79371361 1.64931313 5.25 4.125 C5.4975 4.74375 5.745 5.3625 6 6 C4.68 5.67 3.36 5.34 2 5 C2 4.34 2 3.68 2 3 C0.68 3.33 -0.64 3.66 -2 4 C-1.34 2.68 -0.68 1.36 0 0 Z " fill="#540101" transform="translate(240,260)"/>
<path d="M0 0 C3.34944548 5.02416822 3.09834146 9.09951257 3 15 C2.67 15 2.34 15 2 15 C0.2520497 9.75614911 -0.19392201 5.52677733 0 0 Z " fill="#C70D0E" transform="translate(251,172)"/>
<path d="M0 0 C2.86724686 0.57344937 3.8614515 0.8614515 6 3 C5.625 5.125 5.625 5.125 5 7 C3.29115995 5.37660195 1.62553283 3.70680947 0 2 C0 1.34 0 0.68 0 0 Z " fill="#340100" transform="translate(320,289)"/>
<path d="M0 0 C2.875 0.25 2.875 0.25 6 1 C7.4375 2.875 7.4375 2.875 8 5 C7.67 5.99 7.34 6.98 7 8 C4.35247996 5.42215154 2.05567935 3.08351902 0 0 Z " fill="#300000" transform="translate(282,252)"/>
<path d="M0 0 C1.14926266 0.95421808 2.29430541 1.91352045 3.4375 2.875 C4.07558594 3.40867187 4.71367187 3.94234375 5.37109375 4.4921875 C7 6 7 6 8 8 C5.6875 7.8125 5.6875 7.8125 3 7 C0 2.96551724 0 2.96551724 0 0 Z " fill="#400000" transform="translate(253,282)"/>
<path d="M0 0 C0 0.99 0 1.98 0 3 C-2.97 3.66 -5.94 4.32 -9 5 C-4 0 -4 0 0 0 Z " fill="#C90E0D" transform="translate(160,131)"/>
<path d="M0 0 C0.33 0.66 0.66 1.32 1 2 C1.66 2 2.32 2 3 2 C3 4.64 3 7.28 3 10 C1.5 8.9375 1.5 8.9375 0 7 C-0.1875 3.3125 -0.1875 3.3125 0 0 Z " fill="#1F0001" transform="translate(155,178)"/>
<path d="M0 0 C2.475 0.495 2.475 0.495 5 1 C5.33 1.99 5.66 2.98 6 4 C6.66 4.33 7.32 4.66 8 5 C7.67 5.66 7.34 6.32 7 7 C5.83040013 6.02433888 4.66438823 5.044375 3.5 4.0625 C2.8503125 3.51722656 2.200625 2.97195313 1.53125 2.41015625 C1.0259375 1.94480469 0.520625 1.47945313 0 1 C0 0.67 0 0.34 0 0 Z " fill="#390100" transform="translate(294,264)"/>
<path d="M0 0 C0.66 0 1.32 0 2 0 C2.33 1.65 2.66 3.3 3 5 C1.02 5.33 -0.96 5.66 -3 6 C-2.01 4.02 -1.02 2.04 0 0 Z " fill="#350101" transform="translate(281,217)"/>
</svg>
